<svg xmlns="http://www.w3.org/2000/svg" width="82" height="82" viewBox="0 0 82 82"><g transform="translate(-570 -1860)"><circle cx="41" cy="41" r="41" transform="translate(570 1860)" fill="none"/><g transform="translate(3 1)"><g transform="translate(0 60)"><g transform="translate(577 1810)" fill="none" stroke="#fc2361" stroke-width="3"><circle cx="31" cy="31" r="31" stroke="none"/><circle cx="31" cy="31" r="29.5" fill="none"/></g><rect width="32" height="32" transform="translate(608 1809)" fill="#fff"/><path d="M52.211,3.791a3.063,3.063,0,0,0-4.35,0L19.873,30.674l-9.589-9.619a3.131,3.131,0,1,0-4.35,4.5L17.7,37.322a3.063,3.063,0,0,0,4.35,0L52.211,8.294a3.063,3.063,0,0,0,0-4.5Z" transform="translate(585.804 1814.115)" fill="#fc2361" stroke="#fff" stroke-width="3"/></g></g></g></svg>