<svg xmlns="http://www.w3.org/2000/svg" width="1226" height="772" viewBox="0 0 1226 772">
  <path id="Subtraction_1" data-name="Subtraction 1" d="M-3836.5,703.5h-1226v-772h1226V22.243c-19.731,8.206-38.926,20.658-57.054,37.01a154.407,154.407,0,0,1-23.81,17.778,129.684,129.684,0,0,1-23.9,11.238c-14.593,5.1-30.316,7.575-48.066,7.575a262.229,262.229,0,0,1-30.589-2c-10.224-1.2-20.664-2.834-30.76-4.413l-.376-.059c-20.349-3.181-41.39-6.471-62.472-6.471-22.058,0-41.542,3.695-59.565,11.3-43.034,18.149-56.01,51.18-68.56,83.123l-.007.017c-3.871,9.853-7.527,19.159-12.027,27.97a114.1,114.1,0,0,1-7.436,12.653,80.263,80.263,0,0,1-9.225,11.261,71.527,71.527,0,0,1-26.342,16.855,100.3,100.3,0,0,1-18.383,4.847,150.844,150.844,0,0,1-22.7,1.961c-46.531.732-82.877,15.159-108.027,42.881-14.22,15.674-24.465,35.186-30.451,58a182.522,182.522,0,0,0-5.155,60.476c5.462,66.942,67.613,136.956,162.164,138.248,1.44.005,145.883.516,311.094.516,62.145,0,119.894-.072,171.642-.214V703.5Z" transform="translate(5062.5 68.5)" fill="#fff"/>
</svg>
