<svg xmlns="http://www.w3.org/2000/svg" width="82" height="82" viewBox="0 0 82 82"><g transform="translate(-1229 -2113)"><circle cx="41" cy="41" r="41" transform="translate(1229 2113)" fill="none"/><g transform="translate(1242.354 2639)"><path d="M269.938-511.808a1.531,1.531,0,0,0-.16,2.641,8.969,8.969,0,0,0,1.629.479,23.084,23.084,0,0,1,5.453,1.8,25.919,25.919,0,0,1,7.945,5.655,25.84,25.84,0,0,1,6.848,12.886c.288,1.353.362,1.523.777,1.832a1.5,1.5,0,0,0,2.034-.117c.49-.511.522-.841.224-2.29a29.527,29.527,0,0,0-20.33-22.215,29.721,29.721,0,0,0-3.8-.863A1.681,1.681,0,0,0,269.938-511.808Z" transform="translate(-239.862)" fill="#fc2361" stroke="#fff" stroke-width="0.5"/><path d="M9.512-481.711c-1.363.437-2.5,1.384-5.7,4.771C1.525-474.523.907-473.3.694-470.86c-.309,3.472.863,7.87,3.45,12.961A38.173,38.173,0,0,0,7.1-452.841a55.528,55.528,0,0,0,20.149,18.349c4.579,2.439,8.456,3.685,11.981,3.866a8.794,8.794,0,0,0,6.368-2c.2-.17,1.427-1.4,2.726-2.737,2.151-2.2,2.4-2.5,2.811-3.323a4.86,4.86,0,0,0,.011-4.675c-.437-.884-.543-1-4.4-4.856-3.738-3.749-3.994-3.983-4.76-4.345a5.058,5.058,0,0,0-4.888.224,31.437,31.437,0,0,0-2.684,2.46l-2.2,2.172-1.054-.564c-4.686-2.471-10.841-8.669-13.12-13.205l-.415-.809,2.045-2.066c2.183-2.2,2.716-2.865,3.067-3.866a5.019,5.019,0,0,0-.3-4.036c-.351-.7-.714-1.1-4.334-4.718-4.121-4.121-4.451-4.4-5.708-4.771A6.013,6.013,0,0,0,9.512-481.711Zm2.385,3.1a81.707,81.707,0,0,1,7.838,7.881c.554,1.225.319,1.629-2.6,4.526a32.1,32.1,0,0,0-2.556,2.7,3.481,3.481,0,0,0,.319,2.716,33.43,33.43,0,0,0,6.965,9.222,34.449,34.449,0,0,0,8.52,6.4c1.2.628,1.363.682,1.97.671a2.428,2.428,0,0,0,1.022-.192,37.155,37.155,0,0,0,2.769-2.567,36.72,36.72,0,0,1,2.758-2.556,2.238,2.238,0,0,1,2,.192c.756.522,7.231,7.125,7.487,7.625a2.143,2.143,0,0,1,0,1.938,56.264,56.264,0,0,1-4.846,5.069c-1.7,1.491-4.1,1.672-8.04.607a44.564,44.564,0,0,1-10.969-5.314A53.081,53.081,0,0,1,6.051-461.094c-2.311-5.2-2.875-9.18-1.661-11.661a17.279,17.279,0,0,1,2.737-3.067,24.485,24.485,0,0,1,2.929-2.737A2.011,2.011,0,0,1,11.9-478.612Z" transform="translate(0 -26.891)" fill="#fc2361" stroke="#fff" stroke-width="0.5"/><path d="M265.819-418.668a1.556,1.556,0,0,0-.554,2.1c.3.49.554.618,1.842.937a14.52,14.52,0,0,1,7.338,4.2,14.6,14.6,0,0,1,3.759,6.986c.224,1,.373,1.342.756,1.64a1.55,1.55,0,0,0,2.439-.884c.16-.809-.639-3.589-1.565-5.431a17.9,17.9,0,0,0-11.853-9.5C266.693-418.934,266.277-418.945,265.819-418.668Z" transform="translate(-236.255 -83.215)" fill="#fc2361" stroke="#fff" stroke-width="0.5"/></g></g></svg>