<svg xmlns="http://www.w3.org/2000/svg" width="82" height="82" viewBox="0 0 82 82"><g transform="translate(-570 -2113)"><circle cx="41" cy="41" r="41" transform="translate(570 2113)" fill="none"/><g transform="translate(583.783 2638)"><path d="M222.283-510.846a3.355,3.355,0,0,0-1.875,1.765l-.252.548-.033,13.354c-.022,12.916-.022,13.376.186,13.826a1.954,1.954,0,0,0,2.324,1.075c.154-.066,1.535-1.14,3.07-2.4l2.785-2.28,10.58-.055,10.58-.055.625-.307a3.356,3.356,0,0,0,1.535-1.535l.252-.461v-21.27l-.252-.5a3.46,3.46,0,0,0-1.6-1.59L249.65-511l-13.486.011C225.43-510.989,222.6-510.956,222.283-510.846Zm27.2,1.962a1.359,1.359,0,0,1,.471.515c.175.362.186,1.031.164,10.493l-.033,10.1-.263.285a1.916,1.916,0,0,1-.658.395c-.252.066-4.221.11-10.7.11-9.857,0-10.328.011-10.745.208-.241.121-1.568,1.14-2.96,2.281l-2.522,2.083-.033-12.894c-.022-10.032,0-12.949.11-13.146.307-.581-.318-.559,13.793-.559C246.372-509.026,249.266-508.994,249.485-508.884Z" transform="translate(-196.845 0)" fill="#fc2361"/><path d="M298.431-465.89c-.537.219-.592.461-.592,2.6v2.006h-2.017c-1.984,0-2.028.011-2.335.263l-.307.263-.033,2.609a16.2,16.2,0,0,0,.088,2.905c.23.548.647.647,2.73.647h1.875v4.024l.285.3.3.285h2.675a16.685,16.685,0,0,0,2.906-.121c.428-.23.526-.745.526-2.675V-454.6h1.809c1.93,0,2.445-.1,2.675-.526a16.354,16.354,0,0,0,.121-2.873v-2.653l-.318-.318-.318-.318h-3.947l-.044-2.039-.033-2.039-.362-.318-.351-.318-2.555.011A22.685,22.685,0,0,0,298.431-465.89Zm4.013,3.783c0,2.039.077,2.434.537,2.686a12.242,12.242,0,0,0,2.193.11h1.984v2.62l-2.028.033-2.028.033-.3.307-.307.3-.033,2.028-.033,2.028h-2.62v-1.919c0-2.16-.077-2.467-.669-2.675a13.085,13.085,0,0,0-2.193-.121H295.1v-2.631h4.079l.318-.318.318-.318v-4.079h2.631Z" transform="translate(-261.863 -40.066)" fill="#fc2361"/><path d="M7.9-420.666a6.36,6.36,0,0,0-3.41,2.083,11.086,11.086,0,0,0-2.675,3.618A14.879,14.879,0,0,0,.237-407.4a14.8,14.8,0,0,0,1.612,6.25c1.118,2.259,1.316,2.489,10.789,11.995,4.824,4.846,9.352,9.341,10.054,9.988a15.359,15.359,0,0,0,5.964,3.607,14.174,14.174,0,0,0,4.857.778,15.293,15.293,0,0,0,8.081-2.193,13.864,13.864,0,0,0,3.969-3.947,6.309,6.309,0,0,0,.68-2.96,5.959,5.959,0,0,0-1.557-4.112,37.815,37.815,0,0,0-5.252-4.057,6.46,6.46,0,0,0-3.169-.735,6.986,6.986,0,0,0-5.877,3.037l-.844,1.064L21.5-396.731l-8.048-8.037.263-.219c.143-.121.636-.526,1.107-.91a7.166,7.166,0,0,0,2.412-7.916c-.351-1.042-.636-1.491-2.149-3.465-1.392-1.809-1.908-2.3-2.993-2.84A6.267,6.267,0,0,0,7.9-420.666Zm2.862,2.116c1.074.417,1.436.779,3.443,3.41a5.362,5.362,0,0,1,1.338,4.331c-.241,1.546-.932,2.544-2.873,4.1-.954.757-1.162,1.031-1.261,1.59-.164,1.031-.625.515,8.552,9.714,4.912,4.923,8.607,8.541,8.815,8.629.932.406,1.656.121,2.577-1.009,1.524-1.886,2.16-2.412,3.388-2.8a5.4,5.4,0,0,1,4.21.526c.844.57,3.509,2.686,4.046,3.191a4.719,4.719,0,0,1,.877,1.228,3.11,3.11,0,0,1,.34,1.809,2.924,2.924,0,0,1-.351,1.809,11.4,11.4,0,0,1-3.432,3.4A13.687,13.687,0,0,1,29.3-377.435a14.777,14.777,0,0,1-3.826-1.984C24.413-380.2,6.246-398.277,5.2-399.593a13.518,13.518,0,0,1-2.313-12.8,16.029,16.029,0,0,1,1.743-3.465,11.479,11.479,0,0,1,2.522-2.4A4.339,4.339,0,0,1,10.763-418.55Z" transform="translate(0 -81.219)" fill="#fc2361"/></g></g></svg>