<svg xmlns="http://www.w3.org/2000/svg" width="82" height="82" viewBox="0 0 82 82"><g transform="translate(-901 -2113)"><circle cx="41" cy="41" r="41" transform="translate(901 2113)" fill="none"/><g transform="translate(855.5 2583.877)"><path d="M66.461-458.752a5.651,5.651,0,0,0-3.649,2.953l-.312.667v45.573l.312.681a6.141,6.141,0,0,0,2.641,2.6l.88.412,6.19.043c7.028.057,7.056.043,7.468-.923a1.217,1.217,0,0,0,.028-1.107c-.369-1.065-.355-1.065-7.17-1.065H66.873l-.483-.327a2.316,2.316,0,0,1-.724-.809c-.241-.469-.256-1.831-.256-22.29s.014-21.821.256-22.29a2.316,2.316,0,0,1,.724-.809l.483-.327H92.527v3.933c0,4.359.028,4.486.852,4.9.44.227.98.256,4.586.256h4.075v18.272l-7.4,7.368c-4.06,4.06-7.482,7.525-7.581,7.723s-.923,2.272-1.846,4.614c-1.5,3.862-1.647,4.33-1.6,5a2.809,2.809,0,0,0,1.278,2.059,1.96,1.96,0,0,0,1.32.327c.752-.014,1.335-.213,5.182-1.775l4.33-1.775,1.988-1.917c1.093-1.051,5.878-5.75,10.634-10.435,6.048-5.963,8.717-8.689,8.9-9.086a2.977,2.977,0,0,0,0-2.414,43.812,43.812,0,0,0-6.147-6.1,3.04,3.04,0,0,0-2.314.057A12.824,12.824,0,0,0,106.724-433l-1.491,1.5-.071-8.632c-.057-7.4-.1-8.689-.284-8.9-.568-.7-10.052-9.626-10.336-9.739C94.131-458.923,67.27-458.908,66.461-458.752Zm31.39,7.056,1.959,1.888h-4.3V-451.8c0-1.661.028-1.988.2-1.888C95.807-453.627,96.772-452.718,97.851-451.7Zm15.688,23.1.923.937-9.612,9.611-9.6,9.6-2.115-2.172c-1.15-1.193-2.13-2.229-2.158-2.3s4.217-4.415,9.441-9.64l9.484-9.484,1.349,1.264C112.006-430.088,113.028-429.109,113.539-428.6ZM92.385-406.989a42.519,42.519,0,0,1-5.367,2.272c-.014-.028.469-1.292,1.065-2.825l1.107-2.8,1.6,1.6A14.049,14.049,0,0,1,92.385-406.989Z" transform="translate(0 0)" fill="#fc2361" stroke="#fff" stroke-width="0.5"/><path d="M134.116-316.717a1.445,1.445,0,0,0,0,2.467c.4.3.525.3,9.995.34,5.274.028,9.881,0,10.221-.043a1.534,1.534,0,0,0,1.432-1.418,1.471,1.471,0,0,0-.865-1.474c-.312-.113-3.488-.156-10.392-.156C134.91-317,134.556-316.986,134.116-316.717Z" transform="translate(-60.846 -121.732)" fill="#fc2361" stroke="#fff" stroke-width="0.5"/><path d="M134.116-252.716a1.445,1.445,0,0,0,0,2.467c.4.3.525.3,9.995.34,5.274.028,9.881,0,10.221-.043a1.534,1.534,0,0,0,1.432-1.418,1.471,1.471,0,0,0-.865-1.474c-.312-.113-3.488-.156-10.392-.156C134.91-253,134.556-252.986,134.116-252.716Z" transform="translate(-60.846 -176.646)" fill="#fc2361" stroke="#fff" stroke-width="0.5"/><path d="M134.152-189.859a1.709,1.709,0,0,0-.61.709,1.027,1.027,0,0,0-.1,1.021,1.9,1.9,0,0,0,.525.78c.354.269.567.284,6.734.284h6.365l.34-.34a1.567,1.567,0,0,0-.369-2.453A108.556,108.556,0,0,0,134.152-189.859Z" transform="translate(-60.788 -230.658)" fill="#fc2361" stroke="#fff" stroke-width="0.5"/></g></g></svg>