<svg xmlns="http://www.w3.org/2000/svg" width="82" height="82" viewBox="0 0 82 82"><g transform="translate(-238 -1860)"><circle cx="41" cy="41" r="41" transform="translate(238 1860)" fill="#fff"/><g transform="translate(247.325 1869.5)"><g transform="translate(0.675 0.5)"><path d="M44.68.5h-26A4.574,4.574,0,0,0,14.1,5.09V57.972a4.574,4.574,0,0,0,4.582,4.59h26a4.574,4.574,0,0,0,4.582-4.59V5.09A4.706,4.706,0,0,0,44.68.5ZM16.192,8.782H47.171V47.995H16.192ZM18.682,2.6h26a2.468,2.468,0,0,1,2.49,2.494v1.7H16.192V5.09A2.468,2.468,0,0,1,18.682,2.6Zm26,57.872h-26a2.468,2.468,0,0,1-2.49-2.494V50.09H47.171v7.883A2.468,2.468,0,0,1,44.68,60.467Z" transform="translate(-0.675 -0.5)" fill="#fc2361"/><path d="M31.7,51.3a4.118,4.118,0,0,0-4.1,4.1,4.1,4.1,0,0,0,8.2,0A4.118,4.118,0,0,0,31.7,51.3Zm0,6.2a2.1,2.1,0,1,1,0-4.2,2.051,2.051,0,0,1,2.1,2.1A2.112,2.112,0,0,1,31.7,57.5Z" transform="translate(-0.744 -0.638)" fill="#fc2361"/><path d="M27.6,5.7h4.1a1,1,0,0,0,1-1,1.075,1.075,0,0,0-1-1H27.6a1,1,0,0,0,0,2Z" transform="translate(-0.739 -0.5)" fill="#fc2361"/><path d="M34.8,5.7h1a1,1,0,0,0,1-1,1.075,1.075,0,0,0-1-1h-1a1,1,0,0,0-1,1A1.075,1.075,0,0,0,34.8,5.7Z" transform="translate(-0.752 -0.5)" fill="#fc2361"/><path d="M59.3,5.3a1.061,1.061,0,0,0-1.5,1.5,9.838,9.838,0,0,1,0,14,1.051,1.051,0,0,0,.7,1.8.908.908,0,0,0,.7-.3A11.922,11.922,0,0,0,59.3,5.3Z" transform="translate(-0.813 -0.5)" fill="#fc2361"/><path d="M54.9,7.6a1.061,1.061,0,0,0-1.5,1.5,6.76,6.76,0,0,1,0,9.6,1.051,1.051,0,0,0,.7,1.8.908.908,0,0,0,.7-.3,8.767,8.767,0,0,0,2.6-6.3A8.675,8.675,0,0,0,54.9,7.6Z" transform="translate(-0.813 -0.5)" fill="#fc2361"/><path d="M5.7,6.7A1.061,1.061,0,0,0,4.2,5.2a12.011,12.011,0,0,0,0,17,1.08,1.08,0,0,0,.7.3.908.908,0,0,0,.7-.3,1.087,1.087,0,0,0,0-1.5A9.929,9.929,0,0,1,5.7,6.7Z" transform="translate(-0.675 -0.5)" fill="#fc2361"/><path d="M10,7.3a.967.967,0,0,0-1.4,0A8.767,8.767,0,0,0,6,13.6a8.767,8.767,0,0,0,2.6,6.3,1.08,1.08,0,0,0,.7.3.908.908,0,0,0,.7-.3,1.088,1.088,0,0,0,0-1.5,6.76,6.76,0,0,1,0-9.6A1.086,1.086,0,0,0,10,7.3Z" transform="translate(-0.675 -0.5)" fill="#fc2361"/></g></g></g></svg>