<svg xmlns="http://www.w3.org/2000/svg" width="82" height="82" viewBox="0 0 82 82"><g transform="translate(-253 -2113)"><circle cx="41" cy="41" r="41" transform="translate(253 2113)" fill="#fff"/><g transform="translate(265 2122)"><path d="M10.03,5.068h10.3a1.034,1.034,0,0,0,0-2.068H10.03a1.034,1.034,0,0,0,0,2.068Zm4.121,51.69h2.061a1.034,1.034,0,0,0,0-2.068H14.151a1.034,1.034,0,0,0,0,2.068Z" transform="translate(5.343 2.121)" fill="#fc2361"/><path d="M31.818,63H9.151A5.165,5.165,0,0,1,4,57.833V6.167A5.165,5.165,0,0,1,9.151,1H31.818a5.165,5.165,0,0,1,5.151,5.167,1.03,1.03,0,1,1-2.061,0,3.1,3.1,0,0,0-3.091-3.1H9.151a3.1,3.1,0,0,0-3.091,3.1V57.833a3.1,3.1,0,0,0,3.091,3.1H31.818a3.1,3.1,0,0,0,3.091-3.1V47.5a1.03,1.03,0,1,1,2.061,0V57.833A5.165,5.165,0,0,1,31.818,63Z" transform="translate(0 0)" fill="#fc2361"/><g transform="translate(18.57 9.242)"><path d="M20.273,47.242a1.015,1.015,0,0,1-.373-.07,1.027,1.027,0,0,1-.657-.96V37.969H14.091A3.1,3.1,0,0,1,11,34.878V8.091A3.1,3.1,0,0,1,14.091,5H42.939A3.1,3.1,0,0,1,46.03,8.091V34.878a3.1,3.1,0,0,1-3.091,3.091H29.226l-8.193,8.939A1.037,1.037,0,0,1,20.273,47.242ZM14.091,7.061a1.032,1.032,0,0,0-1.03,1.03V34.878a1.032,1.032,0,0,0,1.03,1.03h6.182a1.031,1.031,0,0,1,1.03,1.03v6.625l6.709-7.321a1.036,1.036,0,0,1,.76-.334H42.939a1.032,1.032,0,0,0,1.03-1.03V8.091a1.032,1.032,0,0,0-1.03-1.03Z" transform="translate(-11 -5)" fill="#fc2361"/></g><g transform="translate(30.885 15.488)"><path d="M22.153,25.485A5.1,5.1,0,0,0,27.3,20.333c0-2.339-1.589-4.043-4.721-5.065l-.233-.076c-1.175-.383-2.258-.9-2.258-2.071a1.971,1.971,0,0,1,2.061-2.061,4.134,4.134,0,0,1,2.427.787,1.029,1.029,0,1,0,1.327-1.574A6.218,6.218,0,0,0,22.153,9a4.03,4.03,0,0,0-4.121,4.121c0,2.831,2.769,3.736,3.678,4.028l.233.076c2.223.725,3.3,1.743,3.3,3.107a3.023,3.023,0,0,1-3.091,3.091,4.169,4.169,0,0,1-3.3-1.648,1.03,1.03,0,1,0-1.651,1.234A6.255,6.255,0,0,0,22.153,25.485Z" transform="translate(-16.999 -6.939)" fill="#fc2361"/><path d="M20.03,28.606a1.031,1.031,0,0,0,1.03-1.03v-1.03a1.03,1.03,0,1,0-2.061,0v1.03A1.031,1.031,0,0,0,20.03,28.606Zm0-17.515a1.031,1.031,0,0,0,1.03-1.03V9.03A1.03,1.03,0,1,0,19,9.03v1.03A1.031,1.031,0,0,0,20.03,11.091Z" transform="translate(-14.877 -8)" fill="#fc2361"/></g></g></g></svg>